<svg width="28" height="28" viewBox="0 0 28 28" fill="none" xmlns="http://www.w3.org/2000/svg">
<path d="M23.8438 5.25H4.15625C3.31056 5.25 2.625 5.93556 2.625 6.78125V21.2188C2.625 22.0644 3.31056 22.75 4.15625 22.75H23.8438C24.6894 22.75 25.375 22.0644 25.375 21.2188V6.78125C25.375 5.93556 24.6894 5.25 23.8438 5.25Z" stroke="#B8A64B" stroke-linejoin="round"/>
<path d="M23.8438 18.375H22.5312C21.6856 18.375 21 19.0606 21 19.9062V21.2188C21 22.0644 21.6856 22.75 22.5312 22.75H23.8438C24.6894 22.75 25.375 22.0644 25.375 21.2188V19.9062C25.375 19.0606 24.6894 18.375 23.8438 18.375Z" stroke="#B8A64B" stroke-linejoin="round"/>
<path d="M23.8438 14H22.5312C21.6856 14 21 14.6856 21 15.5312V16.8438C21 17.6894 21.6856 18.375 22.5312 18.375H23.8438C24.6894 18.375 25.375 17.6894 25.375 16.8438V15.5312C25.375 14.6856 24.6894 14 23.8438 14Z" stroke="#B8A64B" stroke-linejoin="round"/>
<path d="M23.8438 9.625H22.5312C21.6856 9.625 21 10.3106 21 11.1562V12.4688C21 13.3144 21.6856 14 22.5312 14H23.8438C24.6894 14 25.375 13.3144 25.375 12.4688V11.1562C25.375 10.3106 24.6894 9.625 23.8438 9.625Z" stroke="#B8A64B" stroke-linejoin="round"/>
<path d="M23.8438 5.25H22.5312C21.6856 5.25 21 5.93556 21 6.78125V8.09375C21 8.93944 21.6856 9.625 22.5312 9.625H23.8438C24.6894 9.625 25.375 8.93944 25.375 8.09375V6.78125C25.375 5.93556 24.6894 5.25 23.8438 5.25Z" stroke="#B8A64B" stroke-linejoin="round"/>
<path d="M5.46875 18.375H4.15625C3.31056 18.375 2.625 19.0606 2.625 19.9062V21.2188C2.625 22.0644 3.31056 22.75 4.15625 22.75H5.46875C6.31444 22.75 7 22.0644 7 21.2188V19.9062C7 19.0606 6.31444 18.375 5.46875 18.375Z" stroke="#B8A64B" stroke-linejoin="round"/>
<path d="M5.46875 14H4.15625C3.31056 14 2.625 14.6856 2.625 15.5312V16.8438C2.625 17.6894 3.31056 18.375 4.15625 18.375H5.46875C6.31444 18.375 7 17.6894 7 16.8438V15.5312C7 14.6856 6.31444 14 5.46875 14Z" stroke="#B8A64B" stroke-linejoin="round"/>
<path d="M5.46875 9.625H4.15625C3.31056 9.625 2.625 10.3106 2.625 11.1562V12.4688C2.625 13.3144 3.31056 14 4.15625 14H5.46875C6.31444 14 7 13.3144 7 12.4688V11.1562C7 10.3106 6.31444 9.625 5.46875 9.625Z" stroke="#B8A64B" stroke-linejoin="round"/>
<path d="M5.46875 5.25H4.15625C3.31056 5.25 2.625 5.93556 2.625 6.78125V8.09375C2.625 8.93944 3.31056 9.625 4.15625 9.625H5.46875C6.31444 9.625 7 8.93944 7 8.09375V6.78125C7 5.93556 6.31444 5.25 5.46875 5.25Z" stroke="#B8A64B" stroke-linejoin="round"/>
<path d="M19.4688 5.25H8.53125C7.68556 5.25 7 5.93556 7 6.78125V12.4688C7 13.3144 7.68556 14 8.53125 14H19.4688C20.3144 14 21 13.3144 21 12.4688V6.78125C21 5.93556 20.3144 5.25 19.4688 5.25Z" stroke="#B8A64B" stroke-linejoin="round"/>
<path d="M19.4688 14H8.53125C7.68556 14 7 14.6856 7 15.5312V21.2188C7 22.0644 7.68556 22.75 8.53125 22.75H19.4688C20.3144 22.75 21 22.0644 21 21.2188V15.5312C21 14.6856 20.3144 14 19.4688 14Z" stroke="#B8A64B" stroke-linejoin="round"/>
</svg>
